{
  "asset": {
    "version": "2.0",
    "generator": "THREE.GLTFExporter r180"
  },
  "scenes": [
    {
      "name": "Scene",
      "nodes": [
        0
      ]
    }
  ],
  "scene": 0,
  "nodes": [
    {
      "name": "moon.glb",
      "children": [
        1
      ]
    },
    {
      "matrix": [
        1,
        0,
        0,
        0,
        0,
        -3.029462689596585e-7,
        -0.9999999657714298,
        0,
        0,
        0.9999999657714298,
        -3.029462689596585e-7,
        0,
        0.21801932156085968,
        1.0426325798034668,
        -4.411673545837402,
        1
      ],
      "name": "moon",
      "extras": {
        "name": "moon"
      },
      "children": [
        2
      ]
    },
    {
      "name": "moon_moon_0",
      "extras": {
        "name": "moon_moon_0"
      },
      "mesh": 0
    }
  ],
  "bufferViews": [
    {
      "buffer": 0,
      "byteOffset": 0,
      "byteLength": 6888,
      "target": 34962,
      "byteStride": 12
    },
    {
      "buffer": 0,
      "byteOffset": 6888,
      "byteLength": 6888,
      "target": 34962,
      "byteStride": 12
    },
    {
      "buffer": 0,
      "byteOffset": 13776,
      "byteLength": 4592,
      "target": 34962,
      "byteStride": 8
    },
    {
      "buffer": 0,
      "byteOffset": 18368,
      "byteLength": 6480,
      "target": 34963
    }
  ],
  "buffers": [
    {
      "byteLength": 24848,
      "uri": "data:application/octet-stream;base64,"
    }
  ],
  "accessors": [
    {
      "bufferView": 0,
      "componentType": 5126,
      "count": 574,
      "max": [
        0.250043660402298,
        0.2504507303237915,
        0.2500201463699341
      ],
      "min": [
        -0.2500437796115875,
        -0.2504504323005676,
        -0.2500201463699341
      ],
      "type": "VEC3"
    },
    {
      "bufferView": 1,
      "componentType": 5126,
      "count": 574,
      "max": [
        0.9980061650276184,
        0.9996277093887329,
        0.9979085922241211
      ],
      "min": [
        -0.9980061650276184,
        -0.9996277093887329,
        -0.9979085922241211
      ],
      "type": "VEC3"
    },
    {
      "bufferView": 2,
      "componentType": 5126,
      "count": 574,
      "max": [
        0.9725607633590698,
        0.9429914951324463
      ],
      "min": [
        0.03187151253223419,
        0.05207955837249756
      ],
      "type": "VEC2"
    },
    {
      "bufferView": 3,
      "componentType": 5123,
      "count": 3240,
      "max": [
        573
      ],
      "min": [
        0
      ],
      "type": "SCALAR"
    }
  ],
  "materials": [
    {
      "pbrMetallicRoughness": {
        "metallicFactor": 0,
        "roughnessFactor": 1,
        "baseColorTexture": {
          "index": 0,
          "texCoord": 0
        }
      },
      "doubleSided": true,
      "name": "moon"
    }
  ],
  "textures": [
    {
      "sampler": 0,
      "source": 0,
      "name": "moon_baseColor"
    }
  ],
  "samplers": [
    {
      "magFilter": 9729,
      "minFilter": 9987,
      "wrapS": 10497,
      "wrapT": 10497
    }
  ],
  "images": [
    {
      "mimeType": "image/jpeg",
      "uri": "data:image/jpeg;base64,"
    }
  ],
  "meshes": [
    {
      "primitives": [
        {
          "mode": 4,
          "attributes": {
            "POSITION": 0,
            "NORMAL": 1,
            "TEXCOORD_0": 2
          },
          "indices": 3,
          "material": 0
        }
      ]
    }
  ]
}